<?xml version="1.0" encoding="utf-8"?>
<!-- Svg Vector Icons : http://www.onlinewebfonts.com/icon -->
<!DOCTYPE svg PUBLIC "-//W3C//DTD SVG 1.1//EN" "http://www.w3.org/Graphics/SVG/1.1/DTD/svg11.dtd">
<svg version="1.1" xmlns="http://www.w3.org/2000/svg" xmlns:xlink="http://www.w3.org/1999/xlink" x="0px" y="0px" viewBox="0 0 1000 1000" enable-background="new 0 0 1000 1000" xml:space="preserve">
<metadata> Svg Vector Icons : http://www.onlinewebfonts.com/icon </metadata>
<g><g style="fill:#b78c33;" transform="translate(0.000000,511.000000) scale(0.100000,-0.100000)"><path d="M1463.3,4730.2c-189.7-53.3-343.8-195.6-414.9-383.3c-35.6-96.8-39.5-154.1-39.5-665.8v-561.1l-250.9-7.9c-199.6-5.9-272.7-17.8-341.8-47.4c-128.4-59.3-207.5-132.4-264.8-249L100,2712.9V-908.8v-3621.6h1323.8h1323.8l4,1120.3l5.9,1122.3h661.9h661.9l5.9-1122.3l4-1120.3h2904.4H9900l-4,2001.5l-5.9,1999.5L9824.9-397c-85,173.9-209.4,300.3-375.4,377.4l-132.4,63.2l-1106.5,5.9c-1203.3,5.9-1207.2,5.9-1377.1-106.7c-41.5-25.7-79-47.4-85-47.4c-4,0-11.9,642.1-13.8,1428.5l-5.9,1430.5l-59.3,94.8c-73.1,116.6-213.4,217.3-345.8,245c-55.3,11.8-189.7,21.7-296.4,21.7h-195.6l-5.9,588.8c-5.9,551.3-7.9,592.7-47.4,677.7c-61.3,132.4-171.9,245-300.3,308.2l-112.6,55.3l-1906.7,4C1994.8,4751.9,1530.5,4748,1463.3,4730.2z M2921.4,4190.8c211.4-86.9,316.1-331.9,229.2-537.4c-126.5-302.3-545.3-363.6-754.8-110.6c-164,199.6-108.7,490,120.5,620.4C2636.9,4232.3,2797,4244.2,2921.4,4190.8z M1680.6,4064.3V3926h128.4h128.4v138.3v138.3h138.3h138.3l-4-399.1l-5.9-401.1l-132.4-5.9l-134.4-5.9v150.2v148.2h-128.4h-128.4v-148.2v-150.2l-132.4,5.9l-134.4,5.9l-5.9,401.1l-4,399.1h138.3h138.3V4064.3z M3972.6,4094v-108.7H3854h-116.6l-5.9-290.4l-5.9-292.4l-132.4-5.9l-132.4-5.9l-5.9,292.4l-5.9,292.4l-112.6,5.9l-114.6,5.9V4094v108.7h375.4h375.4V4094z M4743.1,4094v-108.7h-207.5c-193.6,0-207.5-2-207.5-39.5c0-37.5,13.8-39.5,187.7-39.5h187.7v-98.8v-98.8h-187.7c-173.9,0-187.7-2-187.7-39.5c0-37.5,13.8-39.5,207.5-39.5h207.5v-118.5v-118.5h-345.8h-345.8v405v405h345.8h345.8V4094z M5118.6,3916.2v-286.5h187.7h187.7v-118.5v-118.5h-326h-326v405v405h138.3h138.3V3916.2z M6311.9,2791.9c142.2-59.3,130.4,262.8,130.4-3572.3v-3453.7H5414.9H4387.5v974.1c0,573-7.9,999.8-19.8,1039.3c-21.7,79-83,150.2-167.9,195.6c-51.4,29.6-148.2,33.6-703.4,39.5c-721.2,7.9-841.7-3.9-932.6-90.9c-114.6-104.7-112.6-92.9-112.6-1169.7v-987.9H1423.8H396.4v3453.7c0,3825.2-11.9,3511,126.5,3572.3C615.7,2831.5,6215.1,2833.4,6311.9,2791.9z M9344.8-292.3c57.3-31.6,126.4-85,152.1-118.5c112.6-148.2,106.7-53.3,106.7-2015.3v-1807.9H8171.2H6738.7V-2444c0,1315.9,5.9,1811.8,23.7,1869.1c27.7,90.9,152.1,241.1,239.1,284.5c104.7,55.3,223.3,61.2,1238.8,59.3l997.8-2L9344.8-292.3z"/><path d="M2635,3937.9c-116.6-100.8-43.5-308.2,106.7-308.2c86.9,0,164,75.1,164,156.1C2905.6,3957.7,2755.5,4040.6,2635,3937.9z"/><path d="M908.1,2051l-57.3-57.3v-531.5c0-472.2,4-533.5,35.6-571c65.2-83,100.8-86.9,632.3-86.9c486.1,0,515.7,2,563.1,39.5c79,63.2,92.9,152.1,92.9,612.5c0,460.4-13.8,549.3-92.9,612.5c-47.4,37.5-77.1,39.5-582.9,39.5H965.4L908.1,2051z"/><path d="M2824.6,2051l-57.3-57.3v-537.4V918.9l57.3-57.3l57.3-57.3h537.4h537.4l57.3,57.3l57.3,57.3v537.4v537.4l-57.3,57.3l-57.3,57.3h-537.4h-537.4L2824.6,2051z"/><path d="M4731.3,2047.1l-57.3-59.3l-5.9-478.1C4660.2,990,4672,911,4757,845.8c47.4-39.5,77.1-41.5,563.1-41.5c555.2,0,598.7,7.9,644.1,108.7c15.8,35.6,23.7,203.5,23.7,545.3c0,523.6-9.9,582.9-96.8,630.3c-23.7,11.9-243,19.8-569,19.8h-531.5L4731.3,2047.1z"/><path d="M908.1,55.4L850.8-1.9v-533.5v-533.5l57.3-61.2l57.3-61.3h533.5c505.8,0,535.4,2,582.9,39.5c29.6,23.7,61.3,75.1,73.1,114.6c31.6,116.6,25.7,938.5-7.9,1019.5c-53.3,128.4-61.3,130.4-650,130.4H965.4L908.1,55.4z"/><path d="M2824.6,55.4l-57.3-57.3v-537.4v-537.4l57.3-57.3l57.3-57.3h537.4h537.4l57.3,57.3l57.3,57.3v537.4V-1.9l-57.3,57.3l-57.3,57.3h-537.4h-537.4L2824.6,55.4z"/><path d="M4739.2,55.4L4674-1.9v-537.4v-537.4l65.2-57.3l63.2-57.3h529.5c470.2,0,531.5,4,569,35.6c81,65.2,87,100.8,87,616.5c0,525.6-9.9,584.9-96.8,632.3c-23.7,11.9-241,19.8-563.1,19.8h-525.6L4739.2,55.4z"/><path d="M908.1-1940.1l-57.3-57.3v-537.4v-537.4l57.3-57.3l57.3-57.3h533.5c505.8,0,535.4,2,582.9,39.5c29.6,23.7,61.3,75.1,73.1,114.6c31.6,116.6,25.7,938.5-7.9,1019.5c-53.3,128.4-61.3,130.4-650,130.4H965.4L908.1-1940.1z"/><path d="M4739.2-1940.1l-65.2-57.3v-537.4v-537.4l65.2-57.3l63.2-57.3h529.5c470.2,0,531.5,4,569,35.6c81,65.2,87,100.8,87,616.5c0,525.6-9.9,584.9-96.8,632.3c-23.7,11.9-241,19.8-563.1,19.8h-525.6L4739.2-1940.1z"/><path d="M6997.5-1045.1c-39.5-49.4-41.5-79-41.5-424.8c0-395.2,9.9-452.5,92.9-490c29.6-13.8,189.7-21.7,422.8-21.7c507.8,0,472.2-37.5,472.2,503.8c0,379.4-2,407-39.5,444.6c-37.5,37.5-65.2,39.5-452.5,39.5h-414.9L6997.5-1045.1z"/><path d="M8439.9-1045.1c-39.5-49.4-41.5-79-41.5-444.6c0-527.5-33.6-497.9,541.4-488c484.1,7.9,446.5-33.6,446.5,497.9c0,527.5,43.5,486-497.9,486h-409L8439.9-1045.1z"/><path d="M7005.4-2544.7c-49.4-47.4-49.4-51.4-49.4-424.8c0-381.3,7.9-434.7,77.1-488c21.7-17.8,146.2-23.7,418.9-25.7c363.6,0,391.2,2,440.6,41.5l51.4,39.5v411c0,539.4,43.5,495.9-492,495.9C7054.8-2495.3,7052.9-2495.3,7005.4-2544.7z"/><path d="M8447.8-2544.7c-49.4-47.4-49.4-49.4-49.4-444.6c0-533.5-39.5-494,494-494c533.5,0,493.9-39.5,493.9,499.9c0,529.5,43.5,488-492,488C8497.2-2495.3,8495.2-2495.3,8447.8-2544.7z"/><path d="M3281-3532.6v-997.8h138.3h138.3v997.8v997.8h-138.3H3281V-3532.6z"/></g></g>
</svg>